<svg width="192" height="30" viewBox="0 0 192 30" fill="none" xmlns="http://www.w3.org/2000/svg">
<path d="M23.7259 16.2378L17.061 27.6526L10.3961 16.2378H23.7259ZM25.5114 15.2176H8.60339L17.061 29.6717L25.5114 15.2176Z" fill="white"/>
<path d="M35.3137 2.0404L41.9786 13.4552H28.6488L35.3137 2.0404ZM35.3137 0L26.8561 14.454H43.7713L35.3137 0Z" fill="white"/>
<path d="M0.5 0L7.59143 12.7846L15.3406 0.321025L0.5 0Z" fill="#4CAF4F"/>
<path d="M17.0612 1.12L24.4997 13.8333H9.6084L17.0612 1.12Z" fill="#4CAF4F"/>
<path d="M26.4152 16.6088L33.8608 29.6718H18.6154L26.1838 16.6088H26.4152Z" fill="#4CAF4F"/>
<path d="M28.0271 15.8169L35.3137 28.68L42.7014 15.8169H28.0271Z" fill="#4CAF4F"/>
<path d="M74.7197 2.06348V27.2395H70.1222L59.1691 11.3938H58.9847V27.2395H53.6619V2.06348H58.3332L69.2002 17.8968H69.4215V2.06348H74.7197Z" fill="white"/>
<path d="M87.6243 27.6083C85.682 27.6083 84.0102 27.2149 82.6088 26.4282C81.2156 25.6332 80.142 24.5105 79.388 23.0599C78.634 21.6011 78.257 19.876 78.257 17.8845C78.257 15.9423 78.634 14.2376 79.388 12.7707C80.142 11.3037 81.2033 10.1605 82.5719 9.34092C83.9487 8.52139 85.5632 8.11162 87.4153 8.11162C88.661 8.11162 89.8206 8.31241 90.8942 8.71398C91.976 9.10736 92.9185 9.70152 93.7216 10.4965C94.533 11.2914 95.164 12.2912 95.6147 13.4959C96.0655 14.6925 96.2908 16.0939 96.2908 17.7001V19.1384H80.3469V15.8931H91.3614C91.3614 15.1391 91.1975 14.4712 90.8696 13.8893C90.5418 13.3075 90.087 12.8526 89.5051 12.5248C88.9315 12.1888 88.2635 12.0208 87.5014 12.0208C86.7064 12.0208 86.0016 12.2052 85.387 12.574C84.7805 12.9346 84.3052 13.4222 83.961 14.0368C83.6168 14.6433 83.4406 15.3194 83.4324 16.0652V19.1507C83.4324 20.085 83.6045 20.8922 83.9487 21.5724C84.3011 22.2526 84.7969 22.7772 85.4361 23.1459C86.0754 23.5147 86.8335 23.6991 87.7104 23.6991C88.2922 23.6991 88.8249 23.6172 89.3084 23.4533C89.792 23.2894 90.2058 23.0435 90.55 22.7157C90.8942 22.3879 91.1565 21.9863 91.3368 21.511L96.1802 21.8306C95.9344 22.9943 95.4303 24.0105 94.6682 24.8793C93.9142 25.7398 92.939 26.4118 91.7424 26.8953C90.5541 27.3706 89.1814 27.6083 87.6243 27.6083Z" fill="white"/>
<path d="M103.747 8.35748L107.213 14.9588L110.766 8.35748H116.138L110.667 17.7985L116.285 27.2395H110.938L107.213 20.7119L103.55 27.2395H98.1409L103.747 17.7985L98.3376 8.35748H103.747Z" fill="white"/>
<path d="M127.103 27.6083C125.169 27.6083 123.505 27.1985 122.112 26.379C120.727 25.5513 119.662 24.4039 118.916 22.937C118.179 21.47 117.81 19.7818 117.81 17.8723C117.81 15.9382 118.183 14.2417 118.928 12.783C119.682 11.316 120.752 10.1727 122.137 9.35321C123.522 8.52549 125.169 8.11162 127.079 8.11162C128.726 8.11162 130.168 8.41075 131.406 9.00901C132.643 9.60727 133.623 10.4473 134.344 11.5291C135.065 12.6109 135.462 13.8811 135.536 15.3399H130.594C130.455 14.3974 130.086 13.6394 129.488 13.0657C128.898 12.4838 128.124 12.1929 127.165 12.1929C126.353 12.1929 125.644 12.4142 125.038 12.8567C124.44 13.2911 123.973 13.9262 123.637 14.7621C123.301 15.5981 123.133 16.6102 123.133 17.7985C123.133 19.0032 123.296 20.0276 123.624 20.8717C123.96 21.7159 124.432 22.3592 125.038 22.8017C125.644 23.2443 126.353 23.4656 127.165 23.4656C127.763 23.4656 128.3 23.3426 128.775 23.0968C129.259 22.8509 129.656 22.4944 129.967 22.0273C130.287 21.552 130.496 20.9824 130.594 20.3186H135.536C135.454 21.7609 135.061 23.0312 134.356 24.1294C133.659 25.2194 132.697 26.0717 131.467 26.6863C130.238 27.301 128.783 27.6083 127.103 27.6083Z" fill="white"/>
<path d="M147.494 27.6083C145.552 27.6083 143.88 27.2149 142.479 26.4282C141.085 25.6332 140.012 24.5105 139.258 23.0599C138.504 21.6011 138.127 19.876 138.127 17.8845C138.127 15.9423 138.504 14.2376 139.258 12.7707C140.012 11.3037 141.073 10.1605 142.442 9.34092C143.819 8.52139 145.433 8.11162 147.285 8.11162C148.531 8.11162 149.691 8.31241 150.764 8.71398C151.846 9.10736 152.788 9.70152 153.592 10.4965C154.403 11.2914 155.034 12.2912 155.485 13.4959C155.935 14.6925 156.161 16.0939 156.161 17.7001V19.1384H140.217V15.8931H151.231C151.231 15.1391 151.067 14.4712 150.74 13.8893C150.412 13.3075 149.957 12.8526 149.375 12.5248C148.801 12.1888 148.133 12.0208 147.371 12.0208C146.576 12.0208 145.872 12.2052 145.257 12.574C144.65 12.9346 144.175 13.4222 143.831 14.0368C143.487 14.6433 143.31 15.3194 143.302 16.0652V19.1507C143.302 20.085 143.474 20.8922 143.819 21.5724C144.171 22.2526 144.667 22.7772 145.306 23.1459C145.945 23.5147 146.703 23.6991 147.58 23.6991C148.162 23.6991 148.695 23.6172 149.178 23.4533C149.662 23.2894 150.076 23.0435 150.42 22.7157C150.764 22.3879 151.026 21.9863 151.207 21.511L156.05 21.8306C155.804 22.9943 155.3 24.0105 154.538 24.8793C153.784 25.7398 152.809 26.4118 151.612 26.8953C150.424 27.3706 149.051 27.6083 147.494 27.6083Z" fill="white"/>
<path d="M164.815 16.3233V27.2395H159.578V8.35748H164.569V11.6889H164.79C165.208 10.5907 165.909 9.722 166.893 9.08277C167.876 8.43534 169.068 8.11162 170.47 8.11162C171.781 8.11162 172.924 8.39846 173.9 8.97213C174.875 9.5458 175.633 10.3653 176.174 11.4307C176.715 12.4879 176.985 13.75 176.985 15.217V27.2395H171.748V16.1512C171.756 14.9957 171.461 14.0942 170.863 13.4468C170.265 12.7912 169.441 12.4633 168.392 12.4633C167.687 12.4633 167.065 12.615 166.524 12.9182C165.991 13.2214 165.573 13.664 165.27 14.2458C164.975 14.8195 164.823 15.512 164.815 16.3233Z" fill="white"/>
<path d="M191.156 8.35748V12.2912H179.785V8.35748H191.156ZM182.366 3.83367H187.603V21.4372C187.603 21.9207 187.677 22.2977 187.824 22.5682C187.972 22.8304 188.177 23.0148 188.439 23.1214C188.709 23.2279 189.021 23.2812 189.373 23.2812C189.619 23.2812 189.865 23.2607 190.111 23.2197C190.357 23.1705 190.545 23.1336 190.676 23.1091L191.5 27.0059C191.238 27.0879 190.869 27.1821 190.394 27.2887C189.918 27.4034 189.341 27.4731 188.66 27.4977C187.398 27.5468 186.292 27.3788 185.341 26.9936C184.399 26.6085 183.665 26.0102 183.141 25.1989C182.616 24.3875 182.358 23.3631 182.366 22.1256V3.83367Z" fill="white"/>
</svg>
