<svg width="115" height="19" viewBox="0 0 115 19" fill="none" xmlns="http://www.w3.org/2000/svg">
<path d="M13.9841 10.3443L9.97118 17.2171L5.95829 10.3443H13.9841ZM15.0591 9.72998H4.87891L9.97118 18.4327L15.0591 9.72998Z" fill="#263238"/>
<path d="M20.9612 1.7959L24.9741 8.6687H16.9483L20.9612 1.7959ZM20.9612 0.567383L15.8689 9.27007H26.0535L20.9612 0.567383Z" fill="#263238"/>
<path d="M0 0.567383L4.26971 8.26494L8.93546 0.76067L0 0.567383Z" fill="#4CAF4F"/>
<path d="M9.9712 1.2417L14.4498 8.8963H5.48389L9.9712 1.2417Z" fill="#4CAF4F"/>
<path d="M15.6035 10.5674L20.0864 18.4325H10.9072L15.4642 10.5674H15.6035Z" fill="#4CAF4F"/>
<path d="M16.574 10.0906L20.9612 17.8354L25.4093 10.0906H16.574Z" fill="#4CAF4F"/>
<path d="M44.6874 1.80981V16.9682H41.9192L35.3244 7.42758H35.2134V16.9682H32.0085V1.80981H34.8211L41.3641 11.343H41.4973V1.80981H44.6874Z" fill="#263238"/>
<path d="M52.4571 17.1902C51.2877 17.1902 50.2811 16.9534 49.4373 16.4797C48.5985 16.001 47.9521 15.325 47.4981 14.4516C47.0441 13.5733 46.8172 12.5346 46.8172 11.3356C46.8172 10.1661 47.0441 9.1398 47.4981 8.25655C47.9521 7.3733 48.5911 6.68496 49.4151 6.19152C50.2441 5.69809 51.2161 5.45137 52.3313 5.45137C53.0813 5.45137 53.7795 5.57226 54.4259 5.81404C55.0773 6.05089 55.6447 6.40863 56.1283 6.88727C56.6168 7.3659 56.9967 7.96789 57.2681 8.69324C57.5395 9.41366 57.6752 10.2574 57.6752 11.2246V12.0905H48.0754V10.1365H54.7072C54.7072 9.68258 54.6085 9.28043 54.4111 8.93009C54.2138 8.57975 53.9399 8.30589 53.5896 8.10852C53.2442 7.90621 52.842 7.80506 52.3831 7.80506C51.9045 7.80506 51.4801 7.91608 51.1101 8.13812C50.7449 8.35524 50.4587 8.64883 50.2515 9.01891C50.0442 9.38405 49.9381 9.79113 49.9332 10.2402V12.0979C49.9332 12.6605 50.0368 13.1465 50.2441 13.556C50.4562 13.9656 50.7548 14.2814 51.1397 14.5034C51.5245 14.7255 51.981 14.8365 52.5089 14.8365C52.8593 14.8365 53.18 14.7872 53.4711 14.6885C53.7623 14.5898 54.0115 14.4418 54.2187 14.2444C54.4259 14.047 54.5838 13.8052 54.6924 13.519L57.6086 13.7115C57.4606 14.4122 57.1571 15.024 56.6982 15.5471C56.2442 16.0652 55.6571 16.4698 54.9366 16.7609C54.2212 17.0471 53.3947 17.1902 52.4571 17.1902Z" fill="#263238"/>
<path d="M62.1642 5.5994L64.2515 9.57402L66.3905 5.5994H69.625L66.3313 11.2838L69.7138 16.9682H66.4941L64.2515 13.0379L62.0458 16.9682H58.7891L62.1642 11.2838L58.9076 5.5994H62.1642Z" fill="#263238"/>
<path d="M76.2272 17.1902C75.0626 17.1902 74.061 16.9435 73.2221 16.45C72.3882 15.9517 71.7468 15.2609 71.2977 14.3776C70.8536 13.4944 70.6316 12.4779 70.6316 11.3282C70.6316 10.1637 70.8561 9.14227 71.3051 8.26395C71.7591 7.3807 72.403 6.69236 73.2369 6.19892C74.0708 5.70055 75.0626 5.45137 76.2123 5.45137C77.2042 5.45137 78.0726 5.63147 78.8177 5.99168C79.5628 6.35189 80.1524 6.85766 80.5867 7.50899C81.0209 8.16033 81.2602 8.92515 81.3046 9.80347H78.3292C78.2453 9.23602 78.0233 8.77959 77.6631 8.43419C77.3078 8.08385 76.8415 7.90868 76.2642 7.90868C75.7757 7.90868 75.3488 8.0419 74.9837 8.30836C74.6235 8.56988 74.3422 8.95229 74.1399 9.4556C73.9376 9.9589 73.8365 10.5683 73.8365 11.2838C73.8365 12.0091 73.9351 12.6259 74.1325 13.1342C74.3348 13.6424 74.6186 14.0297 74.9837 14.2962C75.3488 14.5627 75.7757 14.6959 76.2642 14.6959C76.6244 14.6959 76.9476 14.6219 77.2338 14.4738C77.5249 14.3258 77.7642 14.1112 77.9517 13.8299C78.1441 13.5437 78.27 13.2008 78.3292 12.8011H81.3046C81.2553 13.6695 81.0184 14.4344 80.5941 15.0956C80.1746 15.7518 79.5948 16.265 78.8547 16.6351C78.1145 17.0052 77.2387 17.1902 76.2272 17.1902Z" fill="#263238"/>
<path d="M88.5044 17.1902C87.335 17.1902 86.3284 16.9534 85.4846 16.4797C84.6458 16.001 83.9994 15.325 83.5454 14.4516C83.0915 13.5733 82.8645 12.5346 82.8645 11.3356C82.8645 10.1661 83.0915 9.1398 83.5454 8.25655C83.9994 7.3733 84.6384 6.68496 85.4624 6.19152C86.2914 5.69809 87.2635 5.45137 88.3786 5.45137C89.1286 5.45137 89.8269 5.57226 90.4733 5.81404C91.1246 6.05089 91.692 6.40863 92.1756 6.88727C92.6641 7.3659 93.0441 7.96789 93.3154 8.69324C93.5868 9.41366 93.7225 10.2574 93.7225 11.2246V12.0905H84.1227V10.1365H90.7545C90.7545 9.68258 90.6558 9.28043 90.4584 8.93009C90.2611 8.57975 89.9872 8.30589 89.6369 8.10852C89.2915 7.90621 88.8893 7.80506 88.4304 7.80506C87.9518 7.80506 87.5274 7.91608 87.1574 8.13812C86.7922 8.35524 86.506 8.64883 86.2988 9.01891C86.0915 9.38405 85.9855 9.79113 85.9805 10.2402V12.0979C85.9805 12.6605 86.0841 13.1465 86.2914 13.556C86.5036 13.9656 86.8021 14.2814 87.187 14.5034C87.5719 14.7255 88.0283 14.8365 88.5563 14.8365C88.9066 14.8365 89.2273 14.7872 89.5185 14.6885C89.8096 14.5898 90.0588 14.4418 90.266 14.2444C90.4732 14.047 90.6312 13.8052 90.7397 13.519L93.6559 13.7115C93.5079 14.4122 93.2044 15.024 92.7455 15.5471C92.2916 16.0652 91.7044 16.4698 90.984 16.7609C90.2685 17.0471 89.442 17.1902 88.5044 17.1902Z" fill="#263238"/>
<path d="M98.9332 10.3956V16.9682H95.7801V5.5994H98.7852V7.60522H98.9184C99.1701 6.94401 99.5919 6.42097 100.184 6.03609C100.776 5.64628 101.494 5.45137 102.338 5.45137C103.127 5.45137 103.816 5.62407 104.403 5.96948C104.99 6.31488 105.447 6.80832 105.772 7.44978C106.098 8.08631 106.261 8.84621 106.261 9.72945V16.9682H103.108V10.292C103.113 9.59623 102.935 9.05345 102.575 8.66363C102.215 8.26889 101.719 8.07151 101.087 8.07151C100.663 8.07151 100.288 8.1628 99.962 8.34537C99.6413 8.52794 99.3896 8.79439 99.2071 9.14473C99.0294 9.49014 98.9381 9.90709 98.9332 10.3956Z" fill="#263238"/>
<path d="M114.793 5.5994V7.96789H107.946V5.5994H114.793ZM109.501 2.87564H112.654V13.4746C112.654 13.7658 112.698 13.9927 112.787 14.1556C112.876 14.3135 112.999 14.4245 113.157 14.4886C113.32 14.5528 113.507 14.5849 113.72 14.5849C113.868 14.5849 114.016 14.5725 114.164 14.5479C114.312 14.5182 114.425 14.496 114.504 14.4812L115 16.8275C114.842 16.8769 114.62 16.9336 114.334 16.9978C114.048 17.0668 113.7 17.1088 113.29 17.1236C112.53 17.1532 111.864 17.052 111.292 16.8201C110.724 16.5882 110.283 16.228 109.967 15.7395C109.651 15.251 109.496 14.6342 109.501 13.8891V2.87564Z" fill="#263238"/>
</svg>
