<svg width="443" height="329" viewBox="0 0 443 329" fill="none" xmlns="http://www.w3.org/2000/svg">
<path d="M221.266 328.995C315.827 328.995 392.484 324.519 392.484 318.999C392.484 313.478 315.827 309.002 221.266 309.002C126.706 309.002 50.0488 313.478 50.0488 318.999C50.0488 324.519 126.706 328.995 221.266 328.995Z" fill="#F5F5F5"/>
<path d="M308.911 95.7508L300.151 92.2185C300.151 92.2185 288.591 113.297 285.28 114.366C280.776 115.814 271.451 119.841 265.923 120.547C265.172 121.43 263.945 124.177 264.06 125.175C271.486 127.656 287.805 124.362 291.302 121.766C299.259 115.876 308.911 95.7508 308.911 95.7508Z" fill="#E58A7B"/>
<path d="M311.604 90.9558C313.238 96.9871 304.389 109.12 304.389 109.12L292.795 102.621C292.795 102.621 294.967 97.6317 297.616 92.5541C301.864 84.3504 309.741 84.0767 311.604 90.9558Z" fill="#4CAF4F"/>
<path opacity="0.2" d="M311.604 90.9558C313.238 96.9871 304.389 109.12 304.389 109.12L292.795 102.621C292.795 102.621 294.967 97.6317 297.616 92.5541C301.864 84.3504 309.741 84.0767 311.604 90.9558Z" fill="black"/>
<path opacity="0.2" d="M297.396 105.217L301.961 107.778L302.765 93.7639C300.107 95.8038 298.234 101.95 297.396 105.217Z" fill="black"/>
<path d="M303.974 86.4168C303.974 86.4168 294.949 106.498 300.212 143.887H335.774C336.339 138.429 334.467 111.796 341.24 86.0812C337.339 85.3188 333.392 84.8144 329.424 84.5712C324.392 84.2796 319.347 84.2796 314.315 84.5712C310.827 84.9254 307.37 85.5424 303.974 86.4168Z" fill="#4CAF4F"/>
<path opacity="0.2" d="M303.974 86.4168C303.974 86.4168 294.949 106.498 300.212 143.887H335.774C336.339 138.429 334.467 111.796 341.24 86.0812C337.339 85.3188 333.392 84.8144 329.424 84.5712C324.392 84.2796 319.347 84.2796 314.315 84.5712C310.827 84.9254 307.37 85.5424 303.974 86.4168Z" fill="black"/>
<g style="mix-blend-mode:multiply">
<path d="M295.726 319.793C295.673 320.747 309.158 321.515 325.839 321.515C342.52 321.515 356.102 320.747 356.155 319.793C356.208 318.84 342.732 318.08 326.042 318.08C309.352 318.08 295.788 318.849 295.726 319.793Z" fill="#E8ECF1"/>
</g>
<path d="M319.464 294.734L313.157 297.176L318.59 311.211L324.897 308.77L319.464 294.734Z" fill="#E58A7B"/>
<path d="M347.589 313.003H340.939L338.502 297.611H345.152L347.589 313.003Z" fill="#E58A7B"/>
<path d="M340.48 312.234H347.951C348.081 312.235 348.206 312.281 348.304 312.365C348.403 312.449 348.469 312.566 348.49 312.694L349.452 318.601C349.472 318.75 349.461 318.9 349.417 319.044C349.374 319.187 349.301 319.319 349.202 319.431C349.103 319.544 348.981 319.633 348.844 319.694C348.708 319.755 348.56 319.786 348.41 319.785C345.805 319.74 344.551 319.581 341.266 319.581C339.244 319.581 335.085 319.793 332.277 319.793C329.468 319.793 329.283 317.038 330.44 316.782C335.632 315.661 337.646 314.133 339.376 312.649C339.682 312.381 340.074 312.234 340.48 312.234Z" fill="#263238"/>
<path d="M318.404 309.956L325.468 307.89C325.594 307.854 325.729 307.863 325.849 307.914C325.97 307.966 326.069 308.057 326.13 308.172L328.78 313.471C328.841 313.605 328.873 313.751 328.872 313.899C328.871 314.047 328.838 314.193 328.775 314.327C328.712 314.46 328.62 314.579 328.507 314.673C328.393 314.768 328.26 314.837 328.117 314.875C325.548 315.581 323.826 316.014 320.611 316.95C318.395 317.595 316.134 318.645 313.944 319.343C312.425 319.829 308.858 319.846 307.012 319.846C304.283 319.846 303.674 316.968 304.849 316.835C307.807 316.508 308.204 316.659 309.838 315.837C312.511 314.669 314.934 312.996 316.973 310.91C317.358 310.471 317.851 310.142 318.404 309.956Z" fill="#263238"/>
<path d="M267.036 120.512L259.724 117.448L256.713 125.554C259.71 126.011 262.758 126.011 265.755 125.554L267.036 120.512Z" fill="#E58A7B"/>
<path d="M254.284 117.236L254.09 122.622L256.713 125.537L259.724 117.43L254.284 117.236Z" fill="#E58A7B"/>
<path d="M320.329 295.926L314.002 298.369L316.804 305.627L323.131 303.184L320.329 295.926Z" fill="#CF6F64"/>
<path d="M345.152 297.611H338.502L339.765 305.55H346.414L345.152 297.611Z" fill="#CF6F64"/>
<path opacity="0.2" d="M299.082 133.776C299.215 135.374 299.365 137.008 299.559 138.685L325.998 130.102C330.127 128.878 333.715 126.284 336.171 122.746C336.277 120.388 336.409 117.907 336.612 115.32C336.701 114.066 336.807 112.776 336.922 111.469C337.036 110.162 337.195 108.714 337.363 107.319L299.082 133.776Z" fill="black"/>
<path d="M307.719 104.811L306.835 104.705C307.356 100.29 310.65 96.8105 314.121 96.8988V97.7819C311.083 97.7201 308.187 100.855 307.719 104.811Z" fill="white"/>
<path d="M312.425 112.962H312.275V112.079C315.313 112.193 318.165 109.023 318.633 105.076L319.516 105.182C319.048 109.5 315.86 112.962 312.425 112.962Z" fill="white"/>
<path d="M328.93 67.5545C327.685 72.4202 326.219 81.3303 329.424 84.5712C329.424 84.5712 327.181 89.5075 318.148 89.5075C309.891 89.5075 314.315 84.5712 314.315 84.5712C319.808 83.2819 319.905 79.2728 319.181 75.4756L328.93 67.5545Z" fill="#E58A7B"/>
<path d="M324.956 70.7865L319.19 75.4756C319.368 76.3482 319.472 77.2345 319.499 78.1248C321.185 79.8026 324.567 75.5551 324.912 73.3827C325.087 72.5275 325.102 71.6472 324.956 70.7865Z" fill="#CF6F64"/>
<path d="M309.273 67.4927C309.674 68.1881 310.214 68.7933 310.86 69.2704C311.506 69.7475 312.243 70.0863 313.026 70.2655C315.145 70.7335 316.205 68.782 315.622 66.8216C315.101 65.0554 313.361 62.68 311.207 63.0862C310.745 63.1813 310.313 63.3855 309.947 63.6819C309.58 63.9783 309.29 64.3582 309.101 64.7897C308.912 65.2212 308.828 65.6918 308.858 66.1621C308.888 66.6323 309.03 67.0886 309.273 67.4927Z" fill="#CF6F64"/>
<path d="M312.779 51.9242C309.476 53.4343 308.31 66.5566 312.461 68.4994C316.611 70.4421 319.031 49.0543 312.779 51.9242Z" fill="#263238"/>
<path d="M329.936 60.2339C329.142 66.8216 329.053 70.6982 325.521 74.0715C324.427 75.191 323.044 75.9861 321.526 76.3693C320.008 76.7524 318.414 76.7085 316.919 76.2426C315.424 75.7766 314.087 74.9067 313.056 73.7289C312.025 72.551 311.339 71.111 311.074 69.5679C310.006 63.6514 311.48 53.8758 318.086 51.2531C319.474 50.641 321 50.4112 322.506 50.5875C324.013 50.7639 325.445 51.34 326.654 52.2562C327.863 53.1723 328.805 54.3952 329.382 55.7979C329.959 57.2006 330.151 58.7322 329.936 60.2339Z" fill="#E58A7B"/>
<path d="M319.084 55.3329C323.976 54.0878 327.57 53.24 326.281 57.3109C324.576 62.7506 322.528 68.0137 325.274 68.2521C326.952 68.4022 334.369 65.2585 333.425 62.0707C332.603 59.2978 336.074 58.5384 336.692 57.1343C338.979 52.0479 332.436 52.719 333.601 49.6283C334.767 46.5375 328.303 41.5571 324.771 44.0385C319.022 48.0476 309.158 47.9858 314.342 41.3893C318.059 36.6825 311.427 37.6451 311.427 37.6451C311.427 37.6451 315.437 40.0205 308.69 43.6941C301.555 47.6149 308.098 58.1499 319.084 55.3329Z" fill="#263238"/>
<path d="M332.533 67.4927C331.567 68.8902 330.116 69.8785 328.462 70.2655C326.281 70.7335 325.442 68.782 326.263 66.8216C326.996 65.0554 329.009 62.68 331.093 63.0862C333.177 63.4924 333.654 65.7619 332.533 67.4927Z" fill="#E58A7B"/>
<path d="M300.212 143.887C300.212 143.887 294.243 197.312 293.775 217.587C293.298 238.675 314.006 304.472 314.006 304.472L324.603 300.057C324.603 300.057 312.24 239.938 314.006 219.23C315.878 196.65 323.614 143.922 323.614 143.922L300.212 143.887Z" fill="#4CAF4F"/>
<path opacity="0.2" d="M315.048 158.554C310.288 168.427 313.494 187.952 316.072 199.52C317.053 191.351 318.218 182.485 319.322 174.282C319.216 161.672 318.236 151.931 315.048 158.554Z" fill="black"/>
<path d="M324.135 296.56C324.188 296.56 325.389 299.933 325.389 299.933L313.167 305.073L311.242 301.487L324.135 296.56Z" fill="#4CAF4F"/>
<path d="M312.831 143.887C312.831 143.887 317.397 194.698 320.417 213.728C323.737 234.578 336.754 304.013 336.754 304.013H348.931C348.931 304.013 341.637 236.264 340.26 215.618C338.758 193.224 335.774 143.887 335.774 143.887H312.831Z" fill="#4CAF4F"/>
<path d="M349.117 300.843C349.17 300.843 349.523 304.243 349.523 304.243H336.136L335.182 300.339L349.117 300.843Z" fill="#4CAF4F"/>
<path opacity="0.2" d="M344.454 296.816C344.426 296.816 344.4 296.807 344.379 296.789C344.357 296.771 344.344 296.746 344.339 296.719C344.269 296.101 337.69 234.904 336.454 216.36C335.111 196.244 332.409 151.622 332.383 151.172C332.381 151.157 332.383 151.143 332.388 151.129C332.393 151.115 332.4 151.102 332.41 151.091C332.42 151.08 332.432 151.072 332.446 151.066C332.459 151.06 332.474 151.057 332.489 151.057C332.518 151.057 332.545 151.068 332.567 151.088C332.588 151.107 332.601 151.134 332.603 151.163C332.603 151.614 335.332 196.2 336.674 216.351C337.911 234.895 344.489 296.048 344.551 296.71C344.554 296.725 344.553 296.74 344.55 296.754C344.546 296.768 344.539 296.782 344.53 296.793C344.521 296.805 344.509 296.815 344.496 296.822C344.483 296.829 344.469 296.833 344.454 296.834V296.816Z" fill="black"/>
<path d="M319.834 62.0707C319.834 62.6093 319.499 63.042 319.145 63.042C318.792 63.042 318.536 62.6093 318.571 62.0707C318.607 61.532 318.907 61.0993 319.26 61.0993C319.613 61.0993 319.87 61.5408 319.834 62.0707Z" fill="#263238"/>
<path d="M313.776 62.0707C313.776 62.6093 313.432 63.042 313.088 63.042C312.743 63.042 312.478 62.6093 312.505 62.0707C312.531 61.532 312.849 61.0993 313.202 61.0993C313.556 61.0993 313.812 61.5408 313.776 62.0707Z" fill="#263238"/>
<path d="M315.684 62.3444C314.947 63.9893 313.997 65.5302 312.858 66.9275C313.741 67.8106 315.392 67.4044 315.392 67.4044L315.684 62.3444Z" fill="#DF5753"/>
<path d="M315.843 69.6562C315.822 69.6562 315.802 69.6521 315.783 69.644C315.764 69.6359 315.747 69.624 315.733 69.6092C315.719 69.5943 315.708 69.5767 315.701 69.5574C315.694 69.5382 315.691 69.5177 315.693 69.4973C315.695 69.4543 315.714 69.4139 315.745 69.3843C315.776 69.3547 315.817 69.3382 315.86 69.3383C316.536 69.343 317.204 69.1963 317.815 68.909C318.426 68.6217 318.965 68.2011 319.393 67.6781C319.423 67.6514 319.462 67.6367 319.503 67.6367C319.544 67.6367 319.583 67.6514 319.613 67.6781C319.642 67.7078 319.658 67.7473 319.658 67.7885C319.658 67.8297 319.642 67.8693 319.613 67.8989C319.156 68.4547 318.58 68.9011 317.927 69.2052C317.275 69.5092 316.563 69.6634 315.843 69.6562Z" fill="#263238"/>
<path d="M320.912 60.4458C320.869 60.4675 320.822 60.4788 320.775 60.4788C320.727 60.4788 320.68 60.4675 320.638 60.4458C320.307 60.2322 319.932 60.0994 319.54 60.058C319.149 60.0165 318.754 60.0677 318.386 60.2074C318.35 60.2253 318.311 60.2359 318.271 60.2384C318.231 60.241 318.191 60.2356 318.153 60.2224C318.115 60.2092 318.08 60.1886 318.051 60.1618C318.021 60.1349 317.997 60.1024 317.98 60.0661C317.947 59.9875 317.946 59.8992 317.978 59.82C318.009 59.7409 318.07 59.6771 318.148 59.6422C318.609 59.4536 319.11 59.3793 319.606 59.4254C320.103 59.4715 320.581 59.6368 321 59.9071C321.034 59.9301 321.063 59.9596 321.085 59.9939C321.107 60.0282 321.123 60.0666 321.13 60.1069C321.137 60.1471 321.137 60.1884 321.128 60.2284C321.119 60.2684 321.103 60.3063 321.079 60.3398C321.035 60.3905 320.976 60.4272 320.912 60.4458Z" fill="#263238"/>
<path d="M311.436 58.6797C311.389 58.6683 311.346 58.6438 311.313 58.6091C311.283 58.5803 311.26 58.5459 311.244 58.508C311.228 58.4701 311.22 58.4294 311.22 58.3883C311.22 58.3472 311.228 58.3065 311.244 58.2686C311.26 58.2306 311.283 58.1963 311.313 58.1675C311.651 57.7879 312.073 57.4916 312.544 57.3017C313.016 57.1117 313.525 57.0333 314.032 57.0725C314.073 57.0788 314.112 57.0933 314.147 57.1152C314.182 57.1372 314.211 57.166 314.235 57.1999C314.258 57.2339 314.274 57.2722 314.282 57.3126C314.289 57.3529 314.289 57.3945 314.28 57.4346C314.261 57.5163 314.213 57.5884 314.144 57.6372C314.076 57.6859 313.992 57.7081 313.909 57.6995C313.508 57.6742 313.106 57.7406 312.734 57.8936C312.362 58.0466 312.03 58.2822 311.763 58.5826C311.723 58.6273 311.671 58.66 311.613 58.6771C311.556 58.6943 311.494 58.6951 311.436 58.6797Z" fill="#263238"/>
<path d="M344.657 94.7706L335.473 92.3245C335.473 92.3245 326.466 114.498 323.278 115.938C318.951 117.916 307.992 124.768 303.33 128.009C303.074 129.113 303.277 132.036 303.86 132.84C311.807 131.391 327.022 125.537 330.201 122.561C337.451 115.77 344.657 94.7706 344.657 94.7706Z" fill="#E58A7B"/>
<path d="M338.246 313.4C337.798 313.435 337.351 313.314 336.983 313.056C336.87 312.953 336.785 312.822 336.737 312.677C336.689 312.531 336.679 312.376 336.71 312.225C336.715 312.132 336.746 312.041 336.799 311.963C336.852 311.886 336.925 311.824 337.01 311.784C337.752 311.404 339.827 312.72 340.065 312.87C340.091 312.886 340.112 312.911 340.123 312.939C340.134 312.968 340.135 312.999 340.127 313.029C340.12 313.06 340.104 313.088 340.083 313.111C340.061 313.135 340.034 313.152 340.003 313.162C339.428 313.303 338.839 313.383 338.246 313.4ZM337.363 312.022C337.296 312.008 337.227 312.008 337.16 312.022C337.126 312.04 337.098 312.066 337.079 312.099C337.06 312.132 337.052 312.17 337.054 312.208C337.03 312.311 337.034 312.418 337.065 312.518C337.096 312.619 337.153 312.71 337.231 312.782C337.575 313.091 338.44 313.126 339.58 312.905C338.901 312.459 338.137 312.158 337.337 312.022H337.363Z" fill="#4CAF4F"/>
<path d="M339.959 313.162C339.936 313.169 339.912 313.169 339.889 313.162C339.226 312.791 337.981 311.334 338.167 310.592C338.194 310.474 338.261 310.369 338.355 310.294C338.45 310.219 338.567 310.178 338.688 310.177C338.806 310.161 338.927 310.171 339.041 310.206C339.155 310.241 339.261 310.3 339.35 310.38C340.083 311.007 340.127 312.932 340.127 313.029C340.131 313.058 340.126 313.088 340.111 313.113C340.097 313.139 340.075 313.159 340.048 313.17C340.018 313.176 339.987 313.173 339.959 313.162ZM338.776 310.468H338.714C338.511 310.468 338.485 310.583 338.476 310.627C338.37 311.06 339.156 312.164 339.809 312.685C339.806 311.939 339.575 311.212 339.147 310.601C339.044 310.511 338.912 310.464 338.776 310.468Z" fill="#4CAF4F"/>
<path d="M314.801 312.296C314.26 312.485 313.672 312.485 313.132 312.296C313.009 312.23 312.905 312.133 312.829 312.016C312.754 311.899 312.709 311.764 312.699 311.625C312.688 311.538 312.699 311.449 312.731 311.367C312.764 311.285 312.817 311.213 312.884 311.157C313.591 310.521 316.479 311.157 316.805 311.281C316.836 311.289 316.864 311.307 316.883 311.333C316.902 311.358 316.912 311.39 316.911 311.422C316.913 311.455 316.904 311.488 316.887 311.516C316.869 311.544 316.844 311.567 316.814 311.581C316.164 311.874 315.49 312.114 314.801 312.296ZM313.361 311.245C313.26 311.266 313.166 311.311 313.088 311.378C313.059 311.399 313.038 311.427 313.025 311.46C313.013 311.493 313.01 311.529 313.017 311.563C313.023 311.656 313.052 311.746 313.101 311.824C313.15 311.903 313.219 311.968 313.299 312.014C313.768 312.261 314.854 312.067 316.258 311.475C315.312 311.236 314.333 311.159 313.361 311.245Z" fill="#4CAF4F"/>
<path d="M316.788 311.581H316.717C315.834 311.422 314.068 310.406 314.015 309.647C314.015 309.47 314.094 309.223 314.518 309.082C314.661 309.031 314.813 309.009 314.965 309.018C315.117 309.027 315.265 309.067 315.401 309.135C316.355 309.603 316.858 311.298 316.885 311.378C316.891 311.404 316.89 311.432 316.882 311.459C316.875 311.485 316.86 311.509 316.841 311.528C316.827 311.55 316.809 311.568 316.788 311.581ZM314.695 309.347H314.606C314.333 309.444 314.333 309.559 314.333 309.594C314.333 310.053 315.613 310.892 316.505 311.175C316.3 310.465 315.865 309.844 315.269 309.409C315.091 309.318 314.887 309.296 314.695 309.347Z" fill="#4CAF4F"/>
<path d="M304.08 127.488L294.87 131.727L293.801 134.376L297.201 136.663C297.201 136.663 303.559 135.974 305.37 131.886L304.08 127.488Z" fill="#E58A7B"/>
<path d="M304.469 132.99C304.263 131.22 303.679 129.515 302.756 127.992L304.213 126.897C305.309 128.652 306.008 130.626 306.262 132.681L304.469 132.99Z" fill="#263238"/>
<path d="M306.041 128.742C306.235 129.048 306.331 129.407 306.315 129.77C306.298 130.132 306.17 130.481 305.949 130.768C305.727 131.056 305.422 131.268 305.076 131.376C304.73 131.484 304.358 131.483 304.013 131.372C303.667 131.262 303.364 131.047 303.144 130.758C302.925 130.469 302.799 130.12 302.785 129.757C302.772 129.394 302.87 129.036 303.067 128.731C303.264 128.427 303.55 128.19 303.886 128.053C304.263 127.861 304.702 127.826 305.105 127.954C305.509 128.083 305.845 128.367 306.041 128.742Z" fill="#263238"/>
<path d="M288.644 135.153L289.872 136.389L298.137 132.857L294.87 131.727L288.644 135.153Z" fill="#E58A7B"/>
<path opacity="0.2" d="M324.135 296.56C324.188 296.56 325.389 299.933 325.389 299.933L313.167 305.073L311.242 301.487L324.135 296.56Z" fill="black"/>
<path opacity="0.2" d="M349.117 300.843C349.17 300.843 349.523 304.243 349.523 304.243H336.136L335.182 300.339L349.117 300.843Z" fill="black"/>
<path d="M347.05 92.2274C349.479 100.06 339.986 110.772 339.986 110.772L326.872 105.42C328.427 100.893 330.219 96.451 332.241 92.1126C336.268 83.432 344.595 84.3239 347.05 92.2274Z" fill="#4CAF4F"/>
<path opacity="0.2" d="M347.05 92.2274C349.479 100.06 339.986 110.772 339.986 110.772L326.872 105.42C328.427 100.893 330.219 96.451 332.241 92.1126C336.268 83.432 344.595 84.3239 347.05 92.2274Z" fill="black"/>
<path d="M216.745 13.7493H211.102V14.6589H216.745V13.7493Z" fill="#4CAF4F"/>
<path d="M289.791 49.7489L289.108 64.9045L290.016 64.9455L290.699 49.7898L289.791 49.7489Z" fill="#4CAF4F"/>
<path d="M288.035 17.8291H183.833L174.137 234.816H278.339L288.035 17.8291Z" fill="#4CAF4F"/>
<path opacity="0.56" d="M284.927 20.8138H180.725L171.029 237.801H275.231L284.927 20.8138Z" fill="#FAFAFA"/>
<path opacity="0.07" d="M281.818 23.7898H177.617L167.912 240.777H272.113L281.818 23.7898Z" fill="#4CAF4F"/>
<path d="M269.959 118.428H181.016L180.275 135.03H269.217L269.959 118.428Z" fill="white"/>
<path d="M229.929 106.312H181.555L181.228 113.739H229.603L229.929 106.312Z" fill="#4CAF4F"/>
<path d="M267.954 163.235H179.012L178.27 179.836H267.212L267.954 163.235Z" fill="white"/>
<path opacity="0.47" d="M251.644 202.257H191.834L190.942 222.153H250.752L251.644 202.257Z" fill="#4CAF4F"/>
<path d="M247.644 225.244H187.834C187.808 225.25 187.78 225.25 187.754 225.244C187.745 225.218 187.745 225.19 187.754 225.164L188.637 205.26C188.637 205.246 188.64 205.233 188.645 205.22C188.651 205.208 188.659 205.197 188.669 205.188C188.679 205.179 188.69 205.172 188.703 205.167C188.716 205.163 188.73 205.161 188.743 205.163H248.553C248.564 205.157 248.576 205.154 248.589 205.154C248.601 205.154 248.613 205.157 248.624 205.163C248.63 205.173 248.633 205.186 248.633 205.198C248.633 205.21 248.63 205.223 248.624 205.233L247.758 225.182C247.748 225.202 247.731 225.219 247.711 225.231C247.69 225.242 247.667 225.246 247.644 225.244ZM187.94 225.032H247.538L248.421 205.339H188.823L187.94 225.032Z" fill="white"/>
<path d="M219.483 151.119H179.55L179.224 158.554H219.147L219.483 151.119Z" fill="#4CAF4F"/>
<path d="M250.505 64.7993C250.276 69.6309 248.558 74.2734 245.586 78.0895C243.386 80.9719 240.554 83.312 237.309 84.93C234.064 86.548 230.491 87.401 226.865 87.4235C223.935 87.4458 221.031 86.868 218.332 85.7256C215.634 84.5832 213.198 82.9004 211.174 80.7809C209.151 78.6614 207.583 76.15 206.566 73.4015C205.55 70.6529 205.107 67.7255 205.265 64.7993C205.576 58.7274 208.194 53.0034 212.585 48.798C216.976 44.5927 222.808 42.2235 228.887 42.1752C231.82 42.1478 234.727 42.7221 237.429 43.8626C240.13 45.003 242.57 46.6853 244.596 48.8057C246.622 50.926 248.191 53.4392 249.208 56.1901C250.224 58.941 250.665 61.8711 250.505 64.7993Z" fill="white"/>
<path d="M252.633 46.9085C252.575 48.1932 252.118 49.4279 251.326 50.4407C250.74 51.2063 249.986 51.8278 249.123 52.2579C248.26 52.6879 247.31 52.9151 246.346 52.9221C245.411 52.9278 244.49 52.7046 243.662 52.2721C242.833 51.8395 242.124 51.2108 241.595 50.4407C240.894 49.4002 240.547 48.1616 240.606 46.9085C240.691 45.2963 241.388 43.7775 242.555 42.6617C243.721 41.5459 245.27 40.9171 246.884 40.9036C247.663 40.8965 248.435 41.0489 249.153 41.3515C249.87 41.6541 250.518 42.1005 251.057 42.663C251.596 43.2256 252.013 43.8925 252.284 44.6227C252.555 45.3528 252.674 46.1307 252.633 46.9085Z" fill="#4CAF4F"/>
<path d="M190.598 126.729C190.555 127.44 190.245 128.109 189.728 128.601C189.212 129.093 188.529 129.37 187.816 129.378C187.472 129.382 187.13 129.316 186.813 129.182C186.495 129.049 186.209 128.853 185.97 128.604C185.732 128.356 185.547 128.061 185.427 127.739C185.307 127.416 185.255 127.072 185.273 126.729C185.311 126.016 185.62 125.344 186.137 124.852C186.654 124.359 187.34 124.083 188.054 124.08C188.398 124.077 188.739 124.144 189.056 124.278C189.373 124.411 189.659 124.608 189.897 124.856C190.135 125.104 190.32 125.398 190.44 125.72C190.561 126.042 190.614 126.385 190.598 126.729Z" fill="#263238"/>
<path d="M202.501 126.729C202.461 127.441 202.151 128.111 201.634 128.603C201.118 129.095 200.433 129.372 199.72 129.378C199.376 129.381 199.036 129.313 198.719 129.18C198.403 129.046 198.117 128.849 197.88 128.601C197.643 128.353 197.458 128.059 197.339 127.737C197.219 127.415 197.167 127.072 197.185 126.729C197.223 126.017 197.532 125.347 198.047 124.855C198.562 124.362 199.246 124.085 199.958 124.08C200.302 124.075 200.644 124.142 200.961 124.275C201.278 124.408 201.565 124.605 201.804 124.853C202.042 125.101 202.227 125.396 202.347 125.719C202.467 126.041 202.519 126.385 202.501 126.729Z" fill="#263238"/>
<path d="M214.414 126.729C214.373 127.441 214.063 128.111 213.547 128.603C213.03 129.095 212.346 129.372 211.632 129.378C211.288 129.381 210.948 129.313 210.631 129.18C210.314 129.046 210.028 128.85 209.79 128.601C209.551 128.353 209.367 128.059 209.246 127.737C209.126 127.415 209.072 127.072 209.089 126.729C209.129 126.016 209.439 125.346 209.956 124.854C210.473 124.362 211.157 124.085 211.871 124.08C212.215 124.075 212.556 124.142 212.874 124.275C213.191 124.408 213.478 124.605 213.716 124.853C213.955 125.101 214.139 125.396 214.259 125.719C214.379 126.041 214.432 126.385 214.414 126.729Z" fill="#263238"/>
<path d="M188.593 171.536C188.551 172.247 188.24 172.916 187.724 173.408C187.208 173.899 186.524 174.177 185.811 174.185C185.468 174.188 185.127 174.12 184.81 173.987C184.493 173.853 184.207 173.656 183.969 173.408C183.731 173.16 183.546 172.866 183.425 172.544C183.305 172.222 183.251 171.879 183.268 171.536C183.308 170.823 183.618 170.153 184.135 169.661C184.652 169.169 185.336 168.892 186.05 168.886C186.394 168.883 186.734 168.951 187.051 169.084C187.368 169.218 187.654 169.415 187.892 169.663C188.13 169.911 188.315 170.205 188.436 170.527C188.556 170.849 188.61 171.192 188.593 171.536Z" fill="#263238"/>
<path d="M200.497 171.536C200.456 172.246 200.148 172.915 199.633 173.407C199.118 173.899 198.436 174.177 197.724 174.185C197.38 174.189 197.038 174.122 196.721 173.989C196.404 173.856 196.117 173.659 195.878 173.411C195.64 173.163 195.455 172.868 195.335 172.546C195.215 172.223 195.163 171.879 195.181 171.536C195.221 170.823 195.531 170.153 196.048 169.661C196.564 169.169 197.249 168.892 197.962 168.886C198.306 168.883 198.646 168.951 198.963 169.084C199.279 169.218 199.565 169.415 199.802 169.663C200.039 169.911 200.224 170.206 200.343 170.528C200.463 170.85 200.515 171.193 200.497 171.536Z" fill="#263238"/>
<path d="M212.436 171.536C212.395 172.248 212.085 172.918 211.569 173.41C211.052 173.902 210.368 174.179 209.654 174.185C209.311 174.186 208.97 174.118 208.654 173.984C208.338 173.85 208.052 173.653 207.814 173.406C207.577 173.158 207.392 172.864 207.271 172.543C207.15 172.221 207.095 171.879 207.111 171.536C207.153 170.824 207.464 170.155 207.98 169.663C208.496 169.172 209.18 168.894 209.893 168.886C210.237 168.882 210.578 168.949 210.895 169.082C211.213 169.215 211.5 169.412 211.738 169.66C211.976 169.908 212.161 170.203 212.281 170.525C212.401 170.848 212.454 171.192 212.436 171.536Z" fill="#263238"/>
<path d="M224.322 171.536C224.279 172.247 223.969 172.916 223.453 173.408C222.936 173.899 222.253 174.177 221.54 174.185C221.197 174.186 220.857 174.118 220.54 173.984C220.224 173.85 219.938 173.653 219.701 173.405C219.463 173.158 219.278 172.864 219.157 172.543C219.036 172.221 218.981 171.879 218.997 171.536C219.039 170.824 219.35 170.155 219.866 169.663C220.382 169.172 221.066 168.894 221.779 168.886C222.122 168.883 222.463 168.951 222.78 169.084C223.097 169.218 223.383 169.415 223.621 169.663C223.859 169.911 224.044 170.205 224.165 170.527C224.285 170.849 224.339 171.192 224.322 171.536Z" fill="#263238"/>
<path d="M236.279 171.536C236.236 172.247 235.926 172.916 235.409 173.408C234.893 173.899 234.21 174.177 233.497 174.185C233.153 174.189 232.811 174.122 232.494 173.989C232.177 173.856 231.89 173.659 231.651 173.411C231.413 173.163 231.228 172.868 231.108 172.546C230.988 172.223 230.936 171.879 230.954 171.536C230.994 170.823 231.304 170.153 231.821 169.661C232.337 169.169 233.022 168.892 233.735 168.886C234.079 168.883 234.42 168.951 234.737 169.084C235.054 169.218 235.34 169.415 235.578 169.663C235.816 169.911 236.001 170.205 236.121 170.527C236.242 170.849 236.295 171.192 236.279 171.536Z" fill="#263238"/>
<path d="M234.471 63.621C238.167 60.0066 238.364 54.2131 234.909 50.6809C231.455 47.1486 225.659 47.2153 221.963 50.8297C218.266 54.4442 218.07 60.2377 221.525 63.7699C224.979 67.3021 230.775 67.2355 234.471 63.621Z" fill="#4CAF4F"/>
<path d="M245.586 78.0895C243.386 80.9719 240.554 83.312 237.309 84.93C234.064 86.548 230.491 87.401 226.865 87.4235C223.349 87.4533 219.879 86.6175 216.762 84.9897C213.645 83.3619 210.977 80.9922 208.992 78.0895C213.284 73.8155 220.074 71.025 227.598 71.025C235.122 71.025 241.674 73.8155 245.586 78.0895Z" fill="#4CAF4F"/>
<path opacity="0.1" d="M234.471 63.621C238.167 60.0066 238.364 54.2131 234.909 50.6809C231.455 47.1486 225.659 47.2153 221.963 50.8297C218.266 54.4442 218.07 60.2377 221.525 63.7699C224.979 67.3021 230.775 67.2355 234.471 63.621Z" fill="white"/>
<path opacity="0.1" d="M245.586 78.0895C243.386 80.9719 240.554 83.312 237.309 84.93C234.064 86.548 230.491 87.401 226.865 87.4235C223.349 87.4533 219.879 86.6175 216.762 84.9897C213.645 83.3619 210.977 80.9922 208.992 78.0895C213.284 73.8155 220.074 71.025 227.598 71.025C235.122 71.025 241.674 73.8155 245.586 78.0895Z" fill="white"/>
<path d="M115.661 139.03C114.822 140.867 113.939 142.889 113.17 144.849C112.402 146.81 111.616 148.832 110.936 150.845C109.548 154.813 108.49 158.889 107.775 163.032L107.581 164.33C107.562 164.552 107.583 164.777 107.642 164.992C107.851 165.724 108.179 166.416 108.614 167.041C109.748 168.657 111.063 170.139 112.535 171.456C114.086 172.899 115.713 174.258 117.409 175.527C119.105 176.834 120.888 178.106 122.646 179.306L120.994 182.406C116.798 180.578 112.815 178.295 109.117 175.598C107.144 174.159 105.363 172.473 103.819 170.582C102.903 169.456 102.189 168.18 101.708 166.811C101.429 165.956 101.286 165.062 101.284 164.162C101.284 163.95 101.284 163.641 101.284 163.491V163.058L101.373 162.175C101.879 157.574 102.846 153.036 104.26 148.629C104.949 146.456 105.682 144.293 106.521 142.182C107.36 140.072 108.225 138.006 109.294 135.86L115.661 139.03Z" fill="#E58A7B"/>
<path d="M121.401 178.759L127.644 175.598L126.028 182.45C126.028 182.45 121.745 183.651 119.758 181.567L121.401 178.759Z" fill="#E58A7B"/>
<path d="M133.357 176.719L131.697 182.388L126.028 182.45L127.644 175.598L133.357 176.719Z" fill="#E58A7B"/>
<path d="M142.17 105.968C142.504 107.192 142.969 108.376 143.557 109.5C143.385 109.695 143.164 109.84 142.917 109.919C142.669 109.998 142.405 110.009 142.153 109.951L142.17 105.968Z" fill="#DF5753"/>
<path d="M141.985 106.021C142.351 106.021 142.647 105.566 142.647 105.005C142.647 104.444 142.351 103.99 141.985 103.99C141.619 103.99 141.323 104.444 141.323 105.005C141.323 105.566 141.619 106.021 141.985 106.021Z" fill="#263238"/>
<path d="M141.791 104.025L143.133 103.645C143.133 103.645 142.479 104.687 141.791 104.025Z" fill="#263238"/>
<path d="M124.924 112.45C125.728 116.556 126.531 124.088 123.652 126.835C123.652 126.835 124.783 131.003 132.421 131.003C140.819 131.003 136.43 126.835 136.43 126.835C131.847 125.74 131.962 122.34 132.766 119.143L124.924 112.45Z" fill="#E58A7B"/>
<path d="M122.69 103.089C123.114 109.951 123.149 112.865 126.611 116.388C131.83 121.686 140.166 119.673 141.799 112.856C143.274 106.674 142.338 96.5014 135.618 93.7728C134.143 93.1651 132.537 92.9438 130.953 93.1297C129.368 93.3157 127.857 93.9028 126.563 94.8355C125.269 95.7682 124.234 97.0157 123.556 98.46C122.878 99.9042 122.58 101.498 122.69 103.089Z" fill="#E58A7B"/>
<path d="M123.37 95.3711C119.926 96.625 115.334 95.689 117.135 106.312C119.043 117.563 116.111 121.263 116.111 121.263C116.111 121.263 129.172 124.044 142.506 121.095C142.506 121.095 138.435 113.977 139.574 108.732C141.031 102.109 139.883 99.6628 139.883 99.6628C139.883 99.6628 128.209 93.605 123.37 95.3711Z" fill="#263238"/>
<path d="M137.94 106.666C137.944 107.97 138.318 109.247 139.018 110.348C139.954 111.778 141.058 111.231 141.331 109.712C141.579 108.379 141.393 106.021 140.201 105.102C139.009 104.184 137.958 105.085 137.94 106.666Z" fill="#E58A7B"/>
<path d="M120.376 96.5279C119.387 93.7462 124.103 89.4634 134.081 91.2295C144.06 92.9956 144.493 101.305 144.493 101.305L142.479 98.9033L142.568 101.429L132.315 103.398L120.376 96.5279Z" fill="#263238"/>
<path d="M121.224 127.303C121.165 126.9 121.266 126.489 121.505 126.159C121.744 125.829 122.103 125.606 122.504 125.537C125.613 125.024 132.677 123.982 136.227 124.477C138.876 124.848 139.565 126.384 139.68 127.647C139.698 127.868 139.668 128.091 139.593 128.299C139.518 128.508 139.399 128.698 139.244 128.857C139.09 129.016 138.903 129.14 138.696 129.221C138.489 129.302 138.268 129.337 138.046 129.325L122.699 128.636C122.337 128.618 121.992 128.475 121.724 128.232C121.455 127.989 121.278 127.661 121.224 127.303Z" fill="#4CAF4F"/>
<path opacity="0.6" d="M121.224 127.303C121.165 126.9 121.266 126.489 121.505 126.159C121.744 125.829 122.103 125.606 122.504 125.537C125.613 125.024 132.677 123.982 136.227 124.477C138.876 124.848 139.565 126.384 139.68 127.647C139.698 127.868 139.668 128.091 139.593 128.299C139.518 128.508 139.399 128.698 139.244 128.857C139.09 129.016 138.903 129.14 138.696 129.221C138.489 129.302 138.268 129.337 138.046 129.325L122.699 128.636C122.337 128.618 121.992 128.475 121.724 128.232C121.455 127.989 121.278 127.661 121.224 127.303Z" fill="black"/>
<path d="M130.099 281.574L135.795 285.53L145.323 272.611L139.627 268.664L130.099 281.574Z" fill="#E58A7B"/>
<path d="M116.817 281.318L122.831 284.745L131.264 271.084L125.251 267.657L116.817 281.318Z" fill="#E58A7B"/>
<path d="M145.314 272.611L140.404 279.27L134.708 275.322L139.618 268.664L145.314 272.611Z" fill="#CF6F64"/>
<path d="M125.242 267.657L131.264 271.092L126.92 278.13L120.897 274.695L125.242 267.657Z" fill="#CF6F64"/>
<path d="M134.903 170.432C134.903 170.432 157.138 198.451 152.961 225.252C149.597 246.896 130.081 276.205 130.081 276.205L120.906 271.649C127.373 258.69 132.892 245.279 137.419 231.522C138.815 227.251 139.223 222.719 138.611 218.267C137.999 213.815 136.384 209.561 133.887 205.825C122.619 189.373 104.569 199.167 116.711 170.432H134.903Z" fill="#4CAF4F"/>
<path opacity="0.6" d="M134.903 170.432C134.903 170.432 157.138 198.451 152.961 225.252C149.597 246.896 130.081 276.205 130.081 276.205L120.906 271.649C127.373 258.69 132.892 245.279 137.419 231.522C138.815 227.251 139.223 222.719 138.611 218.267C137.999 213.815 136.384 209.561 133.887 205.825C122.619 189.373 104.569 199.167 116.711 170.432H134.903Z" fill="black"/>
<path opacity="0.4" d="M145.809 188.429L142.576 185.214C142.576 185.47 148.837 224.122 150.595 234.984C151.632 231.811 152.426 228.564 152.97 225.27C155.037 212.121 150.718 198.69 145.809 188.429Z" fill="black"/>
<path d="M144.828 170.432C144.828 170.432 171.603 205.648 172.362 226.762C172.989 244.424 143.221 278.643 143.221 278.643L134.567 273.044C134.567 273.044 151.99 248.742 156.379 228.891C154.683 209.216 118.831 170.432 118.831 170.432H144.828Z" fill="#4CAF4F"/>
<path opacity="0.6" d="M144.828 170.432C144.828 170.432 171.603 205.648 172.362 226.762C172.989 244.424 143.221 278.643 143.221 278.643L134.567 273.044C134.567 273.044 151.99 248.742 156.379 228.891C154.683 209.216 118.831 170.432 118.831 170.432H144.828Z" fill="black"/>
<path d="M111.704 128.407C108.843 129.087 106.097 139.489 106.097 139.489L117.285 146.96C117.285 146.96 121.012 138.73 119.705 135.127C118.354 131.374 115.299 127.55 111.704 128.407Z" fill="#4CAF4F"/>
<path opacity="0.2" d="M113.894 135.109L113.117 144.178L117.277 146.969C118.425 144.383 119.275 141.675 119.811 138.897L113.894 135.109Z" fill="black"/>
<path d="M148.14 128.61C148.14 128.61 151.442 129.766 144.828 170.423H116.694C117.171 158.943 117.179 151.878 111.704 128.407C115.644 127.595 119.637 127.069 123.652 126.835C127.906 126.53 132.176 126.53 136.43 126.835C141.923 127.338 148.14 128.61 148.14 128.61Z" fill="#4CAF4F"/>
<path d="M151.001 135.109C151.637 136.875 152.308 138.774 153.014 140.602C153.721 142.43 154.392 144.311 155.107 146.165L157.271 151.711L157.818 153.097L158.101 153.786L158.233 154.13C158.233 154.192 158.233 154.192 158.233 154.183C158.072 153.956 157.86 153.768 157.615 153.636C157.266 153.43 156.872 153.312 156.467 153.291C156.131 153.281 155.796 153.344 155.487 153.477C155.081 153.662 155.081 153.742 155.089 153.733C155.163 153.674 155.228 153.606 155.284 153.53C155.773 152.888 156.196 152.199 156.547 151.472C156.962 150.66 157.359 149.794 157.756 148.92C158.533 147.154 159.249 145.326 159.964 143.48C160.679 141.635 161.359 139.772 162.022 137.891L164.035 132.257L167.435 133.14C166.764 137.167 165.898 141.087 164.856 145.079C164.353 147.066 163.761 149.035 163.09 151.022C162.754 152.02 162.384 153.009 161.96 154.024C161.518 155.126 160.974 156.185 160.335 157.186C160.1 157.523 159.84 157.841 159.558 158.139C159.107 158.626 158.56 159.014 157.951 159.279C157.41 159.51 156.825 159.619 156.237 159.596C155.579 159.572 154.938 159.38 154.374 159.04C153.709 158.625 153.157 158.052 152.767 157.371C152.635 157.142 152.52 156.912 152.44 156.744L152.272 156.409L151.937 155.72L151.266 154.351C150.383 152.514 149.5 150.66 148.731 148.797C147.963 146.933 147.151 145.044 146.391 143.145C145.632 141.246 144.952 139.348 144.307 137.299L151.001 135.109Z" fill="#E58A7B"/>
<path d="M148.14 128.61C151.522 129.413 155.328 139.41 155.328 139.41L145.27 147.966C145.27 147.966 138.762 137.069 140.077 133.475C141.446 129.731 143.724 127.559 148.14 128.61Z" fill="#4CAF4F"/>
<path d="M165.633 129.095L169.166 126.146L171.621 129.97L169.81 133.157C169.81 133.157 166.931 135.807 164.388 134.456C163.985 133.548 163.888 132.534 164.112 131.567C164.337 130.6 164.871 129.732 165.633 129.095Z" fill="#E58A7B"/>
<path d="M175.541 126.155L175.276 127.117L169.687 128.053L169.139 126.146L175.541 126.155Z" fill="#E58A7B"/>
<path d="M143.91 279.093L133.825 272.576L135.636 269.432L146.965 276.4L143.91 279.093Z" fill="#4CAF4F"/>
<path d="M126.778 284.285C125.894 284.177 125.043 283.876 124.288 283.402C124.257 283.391 124.23 283.371 124.211 283.344C124.192 283.317 124.181 283.285 124.181 283.252C124.181 283.219 124.192 283.187 124.211 283.16C124.23 283.133 124.257 283.113 124.288 283.102C124.562 283.014 126.937 282.281 127.626 282.846C127.704 282.91 127.762 282.994 127.797 283.089C127.831 283.184 127.839 283.286 127.82 283.385C127.808 283.544 127.755 283.697 127.667 283.83C127.579 283.963 127.459 284.071 127.317 284.144C127.152 284.234 126.967 284.283 126.778 284.285ZM124.792 283.314C125.895 283.879 126.778 284.082 127.202 283.87C127.295 283.819 127.372 283.745 127.428 283.656C127.484 283.566 127.515 283.464 127.52 283.358C127.52 283.217 127.52 283.155 127.441 283.12C127.07 282.819 125.745 283.049 124.774 283.314H124.792Z" fill="#263238"/>
<path d="M124.35 283.464C124.303 283.463 124.259 283.444 124.226 283.411C124.213 283.387 124.206 283.359 124.206 283.332C124.206 283.304 124.213 283.277 124.226 283.252C124.226 283.173 124.8 281.256 125.701 280.824C125.816 280.771 125.941 280.744 126.068 280.744C126.194 280.744 126.319 280.771 126.434 280.824C126.558 280.863 126.665 280.942 126.739 281.05C126.813 281.157 126.848 281.286 126.84 281.415C126.778 282.21 125.162 283.305 124.421 283.491L124.35 283.464ZM126.063 281.053C125.977 281.056 125.893 281.077 125.816 281.115C125.268 281.38 124.818 282.413 124.597 283.04C125.374 282.713 126.443 281.848 126.478 281.362C126.478 281.283 126.478 281.186 126.275 281.097C126.209 281.062 126.137 281.038 126.063 281.027V281.053Z" fill="#263238"/>
<path d="M139.38 288.1C138.382 288.1 136.995 286.82 136.236 286.034C136.217 286.007 136.206 285.974 136.206 285.941C136.206 285.908 136.217 285.875 136.236 285.848C136.253 285.82 136.278 285.797 136.308 285.781C136.337 285.766 136.37 285.758 136.404 285.76C136.757 285.76 139.821 286.219 140.254 287.085C140.3 287.162 140.324 287.251 140.324 287.341C140.324 287.431 140.3 287.519 140.254 287.597C140.189 287.732 140.091 287.848 139.969 287.934C139.847 288.021 139.705 288.075 139.556 288.091L139.38 288.1ZM136.819 286.157C137.931 287.235 138.912 287.835 139.468 287.765C139.565 287.752 139.658 287.715 139.738 287.658C139.818 287.602 139.883 287.526 139.927 287.438C139.947 287.408 139.958 287.372 139.958 287.336C139.958 287.3 139.947 287.265 139.927 287.235C139.698 286.758 138.064 286.352 136.819 286.157Z" fill="#263238"/>
<path d="M136.916 286.113C136.718 286.119 136.52 286.104 136.324 286.069C136.297 286.065 136.271 286.054 136.25 286.037C136.228 286.02 136.211 285.997 136.201 285.972C136.188 285.946 136.181 285.917 136.181 285.888C136.181 285.859 136.188 285.83 136.201 285.804C136.254 285.742 137.446 284.303 138.576 284.206C138.896 284.181 139.213 284.282 139.459 284.488C139.804 284.789 139.786 285.054 139.698 285.221C139.477 285.822 137.949 286.113 136.916 286.113ZM136.686 285.787C137.675 285.84 139.256 285.513 139.459 285.08C139.459 285.08 139.53 284.939 139.3 284.745C139.209 284.665 139.102 284.605 138.987 284.569C138.871 284.532 138.75 284.52 138.629 284.533C137.868 284.745 137.19 285.186 136.686 285.795V285.787Z" fill="#263238"/>
<path d="M124.588 282.51L117.1 280.391C116.971 280.352 116.832 280.362 116.71 280.419C116.588 280.476 116.491 280.576 116.438 280.7L113.912 286.378C113.853 286.524 113.825 286.68 113.83 286.837C113.836 286.994 113.874 287.148 113.944 287.289C114.013 287.43 114.111 287.555 114.232 287.655C114.353 287.755 114.494 287.829 114.645 287.871C117.294 288.559 118.566 288.754 121.86 289.699C123.891 290.264 126.787 291.315 129.587 292.109C132.386 292.904 133.322 290.175 132.236 289.593C127.326 286.996 126.937 285.177 125.595 283.234C125.355 282.883 124.998 282.626 124.588 282.51Z" fill="#4CAF4F"/>
<path d="M136.439 285.001L130.046 280.585C129.937 280.506 129.804 280.47 129.67 280.483C129.537 280.496 129.413 280.558 129.322 280.656L125.083 285.213C124.98 285.33 124.903 285.469 124.857 285.619C124.811 285.768 124.798 285.926 124.818 286.082C124.838 286.237 124.891 286.386 124.973 286.52C125.055 286.653 125.165 286.767 125.295 286.855C127.547 288.365 128.712 288.974 131.529 290.926C133.295 292.127 136.713 294.794 139.097 296.454C141.481 298.114 143.256 295.836 142.409 294.935C138.611 290.882 137.781 288.339 137.154 286.034C137.046 285.616 136.792 285.25 136.439 285.001Z" fill="#4CAF4F"/>
<path d="M131.256 276.788L119.732 271.057L120.924 267.931L133.234 273.971L131.256 276.788Z" fill="#4CAF4F"/>
<path d="M116.27 168.771L115.299 171.315C115.201 171.509 115.431 171.712 115.758 171.712H144.97C145.226 171.712 145.438 171.588 145.455 171.43L145.702 168.904C145.702 168.736 145.499 168.586 145.226 168.586H116.729C116.643 168.578 116.557 168.591 116.477 168.623C116.397 168.655 116.326 168.706 116.27 168.771Z" fill="#4CAF4F"/>
<path opacity="0.4" d="M116.27 168.771L115.299 171.315C115.201 171.509 115.431 171.712 115.758 171.712H144.97C145.226 171.712 145.438 171.588 145.455 171.43L145.702 168.904C145.702 168.736 145.499 168.586 145.226 168.586H116.729C116.643 168.578 116.557 168.591 116.477 168.623C116.397 168.655 116.326 168.706 116.27 168.771Z" fill="white"/>
<path d="M120.871 171.959H120.102C119.952 171.959 119.838 171.88 119.846 171.783L120.208 168.507C120.208 168.418 120.35 168.339 120.5 168.339H121.268C121.418 168.339 121.533 168.418 121.524 168.507L121.162 171.783C121.153 171.88 121.021 171.959 120.871 171.959Z" fill="#4CAF4F"/>
<path d="M138.885 171.959H138.126C137.976 171.959 137.861 171.88 137.87 171.783L138.223 168.507C138.223 168.418 138.373 168.339 138.523 168.339H139.283C139.433 168.339 139.556 168.418 139.539 168.507L139.186 171.783C139.141 171.88 139.044 171.959 138.885 171.959Z" fill="#4CAF4F"/>
<g style="mix-blend-mode:multiply">
<path d="M120.2 321.507C133.265 321.507 143.857 320.74 143.857 319.793C143.857 318.847 133.265 318.08 120.2 318.08C107.134 318.08 96.5422 318.847 96.5422 319.793C96.5422 320.74 107.134 321.507 120.2 321.507Z" fill="#F5F5F5"/>
</g>
<path d="M134.611 317.374C130.425 316.155 125.781 314.592 122.972 312.958C122.893 312.905 122.805 312.879 122.725 312.835V293.884H131.194C131.837 293.846 132.441 293.564 132.882 293.095C133.324 292.627 133.57 292.007 133.57 291.363C133.57 290.719 133.324 290.099 132.882 289.631C132.441 289.162 131.837 288.88 131.194 288.842H122.769V202.46H117.683V288.842H109.267C108.924 288.822 108.579 288.872 108.256 288.989C107.932 289.107 107.636 289.289 107.386 289.525C107.135 289.761 106.936 290.046 106.799 290.362C106.663 290.678 106.592 291.019 106.592 291.363C106.592 291.707 106.663 292.048 106.799 292.364C106.936 292.68 107.135 292.965 107.386 293.201C107.636 293.437 107.932 293.619 108.256 293.737C108.579 293.854 108.924 293.905 109.267 293.884H117.683V312.808C117.603 312.808 117.524 312.879 117.444 312.932C114.592 314.592 109.982 316.155 105.797 317.347C105.514 317.433 105.271 317.617 105.112 317.866C104.953 318.115 104.889 318.412 104.931 318.705C104.972 318.997 105.117 319.265 105.339 319.46C105.561 319.655 105.846 319.764 106.141 319.767H134.267C134.549 319.748 134.816 319.632 135.024 319.44C135.231 319.247 135.366 318.99 135.406 318.71C135.447 318.43 135.39 318.144 135.245 317.901C135.1 317.658 134.877 317.472 134.611 317.374Z" fill="#E0E0E0"/>
<path d="M135.909 193.665H104.508C101.981 193.665 99.9332 195.713 99.9332 198.239V207.573C99.9332 210.1 101.981 212.148 104.508 212.148H135.909C138.436 212.148 140.484 210.1 140.484 207.573V198.239C140.484 195.713 138.436 193.665 135.909 193.665Z" fill="#4CAF4F"/>
<path d="M104.216 212.156V213.764C104.216 215.088 105.655 216.166 107.422 216.166H133.031C134.797 216.166 136.236 215.088 136.236 213.764V212.156H104.216Z" fill="#4CAF4F"/>
<path opacity="0.3" d="M104.216 212.156V213.764C104.216 215.088 105.655 216.166 107.422 216.166H133.031C134.797 216.166 136.236 215.088 136.236 213.764V212.156H104.216Z" fill="white"/>
</svg>
